<svg xmlns="http://www.w3.org/2000/svg" width="28" height="28" viewBox="0 0 28 28">
  <g id="instagram" transform="translate(0.328 0.328)">
    <rect id="Rectángulo_27" data-name="Rectángulo 27" width="28" height="28" transform="translate(-0.328 -0.328)" fill="none"/>
    <path id="Trazado_12" data-name="Trazado 12" d="M16.331.613H7.744A7.159,7.159,0,0,0,.6,7.764v8.588a7.159,7.159,0,0,0,7.159,7.163h8.572a7.155,7.155,0,0,0,7.163-7.14h0V7.764A7.151,7.151,0,0,0,16.343.613Zm5.006,15.739a5.033,5.033,0,0,1-5.006,5.033H7.744A5.033,5.033,0,0,1,2.71,16.352V7.764A5.033,5.033,0,0,1,7.744,2.758h8.588a5.006,5.006,0,0,1,5.006,5.006Z" transform="translate(1.723 1.76)" fill="#fff"/>
    <path id="Trazado_13" data-name="Trazado 13" d="M7.829,2.085A5.765,5.765,0,1,0,13.594,7.85h0A5.765,5.765,0,0,0,7.829,2.085Zm0,9.292a3.585,3.585,0,1,1,3.539-3.632v.093A3.574,3.574,0,0,1,7.829,11.4Z" transform="translate(5.927 5.988)" fill="#fff"/>
    <circle id="Elipse_4" data-name="Elipse 4" cx="0.763" cy="0.763" r="0.763" transform="translate(19.15 6.903)" fill="#fff"/>
  </g>
</svg>
