<svg xmlns="http://www.w3.org/2000/svg" width="23" height="22.999" viewBox="0 0 23 22.999">
  <path id="Icon_awesome-linkedin-in" data-name="Icon awesome-linkedin-in" d="M5.148,23H.38V7.645H5.148ZM2.762,5.55A2.775,2.775,0,1,1,5.523,2.762,2.785,2.785,0,0,1,2.762,5.55ZM22.995,23H18.237V15.525c0-1.781-.036-4.066-2.479-4.066-2.479,0-2.859,1.935-2.859,3.938V23H8.135V7.645h4.573V9.739h.067a5.01,5.01,0,0,1,4.512-2.48C22.113,7.26,23,10.437,23,14.565V23Z" transform="translate(0 -0.001)" fill="#fff"/>
</svg>
