<svg xmlns="http://www.w3.org/2000/svg" width="809.517" height="376.897" viewBox="0 0 809.517 376.897">
  <g id="Grupo_29" data-name="Grupo 29" transform="translate(1.5 1.5)">
    <path id="Unión_2" data-name="Unión 2" d="M75.777,301.953H26.594A26.594,26.594,0,0,1,0,275.36V26.594A26.594,26.594,0,0,1,26.594,0h401.33a26.594,26.594,0,0,1,26.594,26.594V275.36a26.594,26.594,0,0,1-26.594,26.594H161.8l-86.02,62.5Z" transform="translate(352 8)" fill="none" stroke="rgba(255,255,255,0.18)" stroke-width="3"/>
    <path id="Unión_4" data-name="Unión 4" d="M47.935,190.933H16.822A16.819,16.819,0,0,1,0,174.117V16.816A16.819,16.819,0,0,1,16.822,0H270.695a16.819,16.819,0,0,1,16.822,16.816v157.3a16.819,16.819,0,0,1-16.822,16.816H102.349l-54.414,39.52Z" transform="translate(176 142)" fill="none" stroke="rgba(255,255,255,0.18)" stroke-width="3"/>
    <path id="Unión_5" data-name="Unión 5" d="M47.935,39.52H16.823A16.819,16.819,0,0,0,0,56.336v157.3a16.819,16.819,0,0,0,16.823,16.816H270.695a16.819,16.819,0,0,0,16.822-16.816V56.336A16.819,16.819,0,0,0,270.695,39.52H102.349L47.935,0Z" transform="translate(287.517 230.453) rotate(180)" fill="none" stroke="rgba(255,255,255,0.18)" stroke-width="3"/>
  </g>
</svg>
