<svg xmlns="http://www.w3.org/2000/svg" width="27" height="28" viewBox="0 0 27 28">
  <g id="twitter" transform="translate(-0.234 0.328)">
    <rect id="Rectángulo_25" data-name="Rectángulo 25" width="27" height="28" transform="translate(0.234 -0.328)" fill="none"/>
    <path id="Trazado_10" data-name="Trazado 10" d="M26.965,6.168l-1.753.081.969-2.767S23.149,4.634,22.388,4.8a6.076,6.076,0,0,0-7.149-.576,4.946,4.946,0,0,0-2.375,5.1A13.2,13.2,0,0,1,4.275,4.5l-.726-.865-.53.992a5.949,5.949,0,0,0-.634,4,6.192,6.192,0,0,0,.553,1.568L2.326,9.95l-.069,1.072a5.408,5.408,0,0,0,.922,3.263,5.915,5.915,0,0,0,.726.9H3.594l.38,1.153A5.765,5.765,0,0,0,6.926,19.8c-1.314.45-2.467.842-4.312,1.441L1,21.779l1.545.842a16.142,16.142,0,0,0,4.716,1.718c4.612.715,9.7.138,13.156-2.975,2.906-2.629,3.863-6.353,3.667-10.239a2.456,2.456,0,0,1,.45-1.58C25.121,8.716,26.954,6.168,26.965,6.168Zm-3.7,2.467a3.92,3.92,0,0,0-.761,2.571c.208,3.909-.865,6.918-3.159,9.028-2.7,2.421-7.033,3.367-11.9,2.606A11.53,11.53,0,0,1,4.9,22.079a39.963,39.963,0,0,0,4.612-1.9l2.663-1.257-2.94-.184a4.151,4.151,0,0,1-3.3-1.879,6.122,6.122,0,0,0,1.153-.184l2.8-.784L7.065,15.2a4.231,4.231,0,0,1-2.606-1.787,4.485,4.485,0,0,1-.565-1.234,7.287,7.287,0,0,0,1.153.184l2.617.254L5.612,11.022A4.335,4.335,0,0,1,3.94,6.41a15.116,15.116,0,0,0,10.677,4.612,8.359,8.359,0,0,0-.15-1.291,3.459,3.459,0,0,1,1.522-4.208,4.543,4.543,0,0,1,5.373.438,1.349,1.349,0,0,0,1.257.334,8.417,8.417,0,0,0,1.026-.311l-.657,1.879h.842Z" transform="translate(-0.057 0.508)" fill="#fff"/>
  </g>
</svg>
